G04*
G04 #@! TF.GenerationSoftware,Altium Limited,Altium Designer,21.1.1 (26)*
G04*
G04 Layer_Color=255*
%FSLAX25Y25*%
%MOIN*%
G70*
G04*
G04 #@! TF.SameCoordinates,86C13C5E-EFD7-4FBB-8F38-476846F7A0A0*
G04*
G04*
G04 #@! TF.FilePolarity,Positive*
G04*
G01*
G75*
%ADD18R,0.02362X0.01968*%
%ADD80R,0.05906X0.05906*%
%ADD81C,0.05906*%
%ADD82C,0.02953*%
%ADD83C,0.03150*%
%ADD84R,0.05906X0.05906*%
%ADD85C,0.25000*%
%ADD95R,0.10236X0.13780*%
%ADD96R,0.06102X0.02165*%
%ADD97R,0.03543X0.03150*%
D18*
X297969Y218000D02*
D03*
X294032D02*
D03*
D80*
X25000Y147000D02*
D03*
X15500Y309000D02*
D03*
X46000Y142500D02*
D03*
X15500Y287000D02*
D03*
D81*
X15000Y147000D02*
D03*
X25000Y157000D02*
D03*
X15000D02*
D03*
X25000Y167000D02*
D03*
X15000D02*
D03*
X25000Y177000D02*
D03*
X15000D02*
D03*
X25000Y187000D02*
D03*
X15000D02*
D03*
X25000Y197000D02*
D03*
X15000D02*
D03*
X25000Y207000D02*
D03*
X15000D02*
D03*
X15500Y319000D02*
D03*
Y329000D02*
D03*
X46000Y152500D02*
D03*
Y162500D02*
D03*
X15500Y277000D02*
D03*
Y267000D02*
D03*
Y257000D02*
D03*
Y247000D02*
D03*
Y237000D02*
D03*
X54500Y37500D02*
D03*
D82*
X371500Y40051D02*
D03*
Y44973D02*
D03*
Y49894D02*
D03*
Y54815D02*
D03*
Y59736D02*
D03*
Y64657D02*
D03*
Y69579D02*
D03*
Y74500D02*
D03*
Y304815D02*
D03*
Y309736D02*
D03*
Y314657D02*
D03*
Y319579D02*
D03*
Y324500D02*
D03*
Y329421D02*
D03*
Y334343D02*
D03*
Y339264D02*
D03*
Y210051D02*
D03*
Y214972D02*
D03*
Y219894D02*
D03*
Y224815D02*
D03*
Y229736D02*
D03*
Y234658D02*
D03*
Y239579D02*
D03*
Y244500D02*
D03*
Y117551D02*
D03*
Y122472D02*
D03*
Y127394D02*
D03*
Y132315D02*
D03*
Y137236D02*
D03*
Y142157D02*
D03*
Y147079D02*
D03*
Y152000D02*
D03*
X128236Y19000D02*
D03*
X133158D02*
D03*
X138079D02*
D03*
X143000D02*
D03*
X147921D02*
D03*
X152842D02*
D03*
X157764D02*
D03*
X162685D02*
D03*
X118394D02*
D03*
X123315D02*
D03*
D83*
X67579Y376500D02*
D03*
X72500D02*
D03*
X77421D02*
D03*
X82342D02*
D03*
X66882Y19000D02*
D03*
X61961D02*
D03*
X57039D02*
D03*
X52118D02*
D03*
D84*
X64500Y37500D02*
D03*
D85*
X377500Y377500D02*
D03*
Y16000D02*
D03*
X16000D02*
D03*
Y377500D02*
D03*
D95*
X157248Y307000D02*
D03*
X41500D02*
D03*
D96*
X306630Y240000D02*
D03*
Y235000D02*
D03*
Y230000D02*
D03*
Y225000D02*
D03*
X285370Y240000D02*
D03*
Y235000D02*
D03*
Y230000D02*
D03*
Y225000D02*
D03*
D97*
X276000Y239756D02*
D03*
Y234244D02*
D03*
M02*
