G04*
G04 #@! TF.GenerationSoftware,Altium Limited,Altium Designer,21.1.1 (26)*
G04*
G04 Layer_Physical_Order=4*
G04 Layer_Color=16711680*
%FSLAX25Y25*%
%MOIN*%
G70*
G04*
G04 #@! TF.SameCoordinates,3A0346AD-BFCD-4A31-9135-123305C2CB66*
G04*
G04*
G04 #@! TF.FilePolarity,Positive*
G04*
G01*
G75*
%ADD10C,0.00600*%
%ADD16C,0.01000*%
%ADD21R,0.02362X0.01968*%
%ADD78C,0.03000*%
%ADD80R,0.05906X0.05906*%
%ADD81C,0.05906*%
%ADD82C,0.02953*%
%ADD83C,0.03150*%
%ADD84R,0.05906X0.05906*%
%ADD85C,0.25000*%
%ADD86C,0.02420*%
%ADD87C,0.03200*%
%ADD93R,0.10236X0.13780*%
%ADD94R,0.06102X0.02165*%
%ADD95R,0.03543X0.03150*%
D10*
X102742Y172758D02*
Y172758D01*
X72503Y179300D02*
X96200D01*
X102742Y172758D01*
Y172758D02*
X108000Y167500D01*
X371500Y117551D02*
X386000Y132051D01*
X371500Y122472D02*
X384800Y135772D01*
X347000Y387000D02*
X386000Y348000D01*
X386000Y132051D02*
Y348000D01*
X346151Y385800D02*
X384800Y347151D01*
Y135772D02*
Y347151D01*
X171000Y387000D02*
X347000D01*
X171497Y385800D02*
X346151D01*
X138200Y352503D02*
X171497Y385800D01*
X137000Y353000D02*
X171000Y387000D01*
X185197Y203000D02*
X304303D01*
X304800Y201800D02*
X318500Y215500D01*
X312503Y211200D02*
X312503D01*
X304303Y203000D02*
X312503Y211200D01*
X184700Y201800D02*
X304800D01*
X165500Y222697D02*
X185197Y203000D01*
X180700Y205800D02*
X184700Y201800D01*
X353628Y197100D02*
X371500Y214972D01*
X153500Y208000D02*
X163200Y198300D01*
X139300Y218200D02*
X160400Y197100D01*
X138500Y217000D02*
X159600Y195900D01*
X161500Y204500D02*
X166500Y199500D01*
X354125Y195900D02*
X368276Y210051D01*
X329500Y199500D02*
X337736Y207736D01*
X159600Y195900D02*
X354125D01*
X332890Y198300D02*
X338500Y203910D01*
X160400Y197100D02*
X353628D01*
X166500Y199500D02*
X329500D01*
X163200Y198300D02*
X332890D01*
X138290Y285000D02*
X138327Y284963D01*
X140037D02*
X165500Y259500D01*
X138327Y284963D02*
X140037D01*
X141000Y279500D02*
X141151Y279651D01*
X143651D01*
X102500Y255803D02*
X135697Y289000D01*
X355685D02*
X371500Y304815D01*
X351964Y290200D02*
X371500Y309736D01*
X135200Y290200D02*
X351964D01*
X99500Y254500D02*
X135200Y290200D01*
X135697Y289000D02*
X355685D01*
X165500Y222697D02*
Y259500D01*
X143651Y279651D02*
X163500Y259803D01*
Y223000D02*
Y259803D01*
X135500Y110500D02*
X142500Y117500D01*
Y182000D01*
X132142Y92642D02*
X145500Y106000D01*
X126142Y92642D02*
X132142D01*
X145500Y106000D02*
Y178000D01*
X126000Y92500D02*
X126142Y92642D01*
X122000Y101000D02*
X126000Y97000D01*
X122000Y101000D02*
Y124500D01*
X126000Y97000D02*
X126390D01*
X126000Y101000D02*
X126000D01*
X123200Y103800D02*
Y124003D01*
Y103800D02*
X126000Y101000D01*
X122000Y124500D02*
X128800Y131300D01*
X123200Y124003D02*
X130000Y130803D01*
Y173500D01*
X128800Y131300D02*
Y173003D01*
X98003Y203800D02*
X128800Y173003D01*
X98500Y205000D02*
X130000Y173500D01*
X117278Y170674D02*
X125674D01*
X111500Y164896D02*
X117278Y170674D01*
X118468Y141469D02*
Y167964D01*
X82500Y205000D02*
X98500D01*
X82003Y203800D02*
X98003D01*
X78300Y207503D02*
X82003Y203800D01*
X79500Y208000D02*
Y219504D01*
Y208000D02*
X82500Y205000D01*
X78300Y207503D02*
Y220001D01*
X82653Y210500D02*
X87500D01*
X82500Y217197D02*
Y218098D01*
X79500Y219504D02*
X87000Y227004D01*
X82500Y217197D02*
X89407Y210290D01*
X78300Y220001D02*
X82500Y224201D01*
X89407Y210290D02*
X107790D01*
X87500Y210500D02*
X88910Y209090D01*
X82500Y224201D02*
Y232000D01*
X104000Y132000D02*
X111500Y139500D01*
Y164896D01*
X109000Y200500D02*
Y204500D01*
X87000Y227004D02*
Y230500D01*
X88910Y209090D02*
X108790D01*
X116700Y217000D01*
X107790Y210290D02*
X115700Y218200D01*
X93300Y216700D02*
X97000Y213000D01*
X94500Y222000D02*
Y254803D01*
Y222000D02*
X103000Y213500D01*
X94500Y254803D02*
X132497Y292800D01*
X132000Y294000D02*
X331000D01*
X93300Y255300D02*
X132000Y294000D01*
X93300Y216700D02*
Y255300D01*
X99500Y231498D02*
Y254500D01*
X73497Y181700D02*
X84716D01*
X99508Y196492D01*
X142000Y208500D02*
Y208710D01*
Y208500D02*
X150200Y200300D01*
X136507Y208493D02*
X149000Y196000D01*
X136507Y208493D02*
Y208710D01*
X149000Y124500D02*
Y196000D01*
X150200Y124997D02*
Y200300D01*
X149000Y124500D02*
X171200Y102300D01*
X150200Y124997D02*
X171697Y103500D01*
X139500Y166500D02*
Y192500D01*
X177500Y111500D02*
X183000Y106000D01*
X324000D01*
X332000Y114000D01*
X326500Y104700D02*
X331536Y109736D01*
X335236D01*
X179800Y104700D02*
X326500D01*
X171697Y103500D02*
X356500D01*
X356003Y102300D02*
X378300Y80003D01*
X171200Y102300D02*
X356003D01*
X356500Y103500D02*
X379500Y80500D01*
X177000Y107500D02*
X179800Y104700D01*
X116700Y217000D02*
X138500D01*
X115700Y218200D02*
X139300D01*
X118500Y214000D02*
X135790D01*
X136000Y214210D01*
X109000Y204500D02*
X118500Y214000D01*
X374472Y44973D02*
X378300Y48800D01*
X371500Y40051D02*
X379500Y48051D01*
Y80500D01*
X378300Y48800D02*
Y80003D01*
X371500Y44973D02*
X374472D01*
X163500Y223000D02*
X180700Y205800D01*
X307413Y239217D02*
X309480D01*
X306630Y240000D02*
X307413Y239217D01*
X309480D02*
X318500Y230197D01*
X306630Y235000D02*
X312000D01*
X317300Y229700D01*
X318500Y215500D02*
Y230197D01*
X317300Y215997D02*
Y229700D01*
X312503Y211200D02*
X317300Y215997D01*
X337736Y207736D02*
X340000D01*
X368276Y210051D02*
X371500D01*
Y304815D02*
Y304815D01*
X334300Y292800D02*
X338500Y297000D01*
X132497Y292800D02*
X334300D01*
X331000Y294000D02*
X339000Y302000D01*
X86138Y329138D02*
X109741Y352741D01*
X109500Y354500D02*
X109741Y354259D01*
X86138Y327000D02*
Y329138D01*
X109741Y352741D02*
Y354259D01*
X70000Y268697D02*
X137000Y335697D01*
X138200Y335200D02*
Y352503D01*
X72000Y269000D02*
X138200Y335200D01*
X137000Y335697D02*
Y353000D01*
X102500Y231000D02*
X105500Y228000D01*
X102500Y231000D02*
Y255803D01*
X72000Y230500D02*
Y269000D01*
X70000Y244750D02*
Y268697D01*
X61500Y236250D02*
X70000Y244750D01*
X61500Y219000D02*
Y236250D01*
X57000Y218000D02*
Y240500D01*
X67800Y184003D02*
Y203806D01*
X53000Y220303D02*
Y238500D01*
X50290Y221316D02*
Y238407D01*
Y221316D02*
X67800Y203806D01*
X69000Y184500D02*
Y204303D01*
X70200Y184997D02*
Y204800D01*
X57000Y218000D02*
X70200Y204800D01*
X53000Y220303D02*
X69000Y204303D01*
X59000Y208000D02*
X65000Y202000D01*
Y140500D02*
Y202000D01*
X66500Y225000D02*
X72000Y230500D01*
X67800Y184003D02*
X72503Y179300D01*
X73000Y180500D02*
X95556D01*
X69000Y184500D02*
X73000Y180500D01*
X97457Y182402D02*
X97638D01*
X95556Y180500D02*
X97457Y182402D01*
X70200Y184997D02*
X73497Y181700D01*
X30500Y267000D02*
X57000Y240500D01*
X44598Y244098D02*
X50290Y238407D01*
X78200Y170000D02*
X84200Y176000D01*
X90000D01*
X15500Y257000D02*
X45500Y227000D01*
Y183000D02*
Y227000D01*
X32200Y111094D02*
X62600Y141494D01*
X63800Y140997D02*
Y196990D01*
X61400Y141991D02*
Y174600D01*
X62600Y141494D02*
Y179900D01*
X31000Y111591D02*
X61400Y141991D01*
X61000Y181500D02*
X62600Y179900D01*
X34600Y110100D02*
X65000Y140500D01*
X62290Y198500D02*
X63800Y196990D01*
X33400Y110597D02*
X63800Y140997D01*
X57968Y178032D02*
X61400Y174600D01*
X80600Y72991D02*
X121994Y31597D01*
Y30164D02*
Y31597D01*
X79400Y72494D02*
X120794Y31100D01*
Y26443D02*
Y31100D01*
X78200Y71997D02*
Y170000D01*
X119594Y22721D02*
X123315Y19000D01*
X77000Y71500D02*
Y161000D01*
X118394Y19000D02*
Y30106D01*
X120794Y26443D02*
X128236Y19000D01*
X80600Y72991D02*
Y164100D01*
X77000Y71500D02*
X118394Y30106D01*
X119594Y22721D02*
Y30603D01*
X78200Y71997D02*
X119594Y30603D01*
X121994Y30164D02*
X133158Y19000D01*
X79400Y72494D02*
Y166900D01*
X84500Y172000D02*
X87500D01*
X79400Y166900D02*
X84500Y172000D01*
X80600Y164100D02*
X84750Y168250D01*
X71500Y166500D02*
X77000Y161000D01*
X32200Y60497D02*
Y111094D01*
X33400Y60994D02*
Y110597D01*
X34600Y61491D02*
Y110100D01*
X31000Y60000D02*
Y111591D01*
X44694Y49700D02*
X82497D01*
X44197Y48500D02*
X82000D01*
X43700Y47300D02*
X81503D01*
X33400Y60994D02*
X44694Y49700D01*
X32200Y60497D02*
X44197Y48500D01*
X31000Y60000D02*
X43700Y47300D01*
X34600Y61491D02*
X45191Y50900D01*
X82994D02*
X98400Y35494D01*
X45191Y50900D02*
X82994D01*
X82497Y49700D02*
X97200Y34997D01*
Y21997D02*
X109197Y10000D01*
X94800Y21003D02*
X108303Y7500D01*
X81503Y47300D02*
X94800Y34003D01*
X82000Y48500D02*
X96000Y34500D01*
X94800Y21003D02*
Y34003D01*
X96000Y21500D02*
Y34500D01*
X97200Y21997D02*
Y34997D01*
X96000Y21500D02*
X108800Y8700D01*
X98400Y22494D02*
Y35494D01*
Y22494D02*
X109694Y11200D01*
X108303Y7500D02*
X149197D01*
X108800Y8700D02*
X148700D01*
X109197Y10000D02*
X140500D01*
X109694Y11200D02*
X135000D01*
X138079Y14279D01*
Y19000D01*
X143000Y12500D02*
Y19000D01*
X140500Y10000D02*
X143000Y12500D01*
X157764Y16067D02*
Y19000D01*
X149197Y7500D02*
X157764Y16067D01*
X148700Y8700D02*
X152842Y12843D01*
Y19000D01*
X55000Y181500D02*
X61000D01*
X51000Y177500D02*
X55000Y181500D01*
X45500Y183000D02*
X51000Y177500D01*
X44000Y180500D02*
X49502Y174998D01*
X15500Y247000D02*
X44000Y218500D01*
Y180500D02*
Y218500D01*
X49502Y174998D02*
X49710Y174790D01*
X52123D01*
X55364Y178032D02*
X57968D01*
X52123Y174790D02*
X55364Y178032D01*
X91484Y137016D02*
X97984D01*
X91469Y137031D02*
X91484Y137016D01*
X97984D02*
X98000Y137000D01*
X92290Y131951D02*
X92338Y132000D01*
X104000D01*
X93500Y127000D02*
X104000D01*
X118468Y141469D01*
X75500Y374521D02*
X77421Y376443D01*
X75500Y328500D02*
Y374521D01*
Y328500D02*
X85000Y319000D01*
X74000Y328303D02*
Y374997D01*
X86803Y315500D02*
X93000D01*
X95000Y317500D01*
X74000Y328303D02*
X86803Y315500D01*
X72500Y376497D02*
Y376500D01*
Y376497D02*
X74000Y374997D01*
X85000Y319000D02*
X89500D01*
X77421Y376443D02*
Y376500D01*
D16*
X46500Y342500D02*
X47000Y342000D01*
X41500Y307000D02*
Y332000D01*
X148500Y322000D02*
X152630Y317870D01*
X47000Y337500D02*
Y342000D01*
X41500Y332000D02*
X47000Y337500D01*
X152630Y311618D02*
Y317870D01*
Y311618D02*
X157248Y307000D01*
X184000Y228500D02*
X270176D01*
X174000Y225500D02*
X178600Y230100D01*
X178500Y223000D02*
X184000Y228500D01*
X266147Y230100D02*
X275803Y239756D01*
X178600Y230100D02*
X266147D01*
X270176Y228500D02*
X274728Y233052D01*
X294032Y218000D02*
Y235238D01*
X285370Y240000D02*
X285437Y239934D01*
X289335D02*
X294032Y235238D01*
X285437Y239934D02*
X289335D01*
X276244Y240000D02*
X285370D01*
X147961Y57961D02*
X148000Y58000D01*
X147921Y57921D02*
X147961Y57961D01*
X274728Y233169D02*
X275803Y234244D01*
X282646D01*
X274728Y233052D02*
Y233169D01*
X285370Y220130D02*
Y225000D01*
X291000Y214500D02*
X300500D01*
X285370Y220130D02*
X291000Y214500D01*
X300500D02*
X306630Y220630D01*
Y225000D01*
X297969Y223307D02*
X304661Y230000D01*
X297969Y218000D02*
Y223307D01*
X304661Y230000D02*
X306630D01*
X285370D02*
Y235000D01*
X147921Y19000D02*
Y57921D01*
X275803Y239756D02*
X276000D01*
X285370Y225000D02*
Y230000D01*
X283402Y235000D02*
X285370D01*
X282646Y234244D02*
X283402Y235000D01*
X276000Y239756D02*
X276244Y240000D01*
D21*
X297969Y218000D02*
D03*
X294032D02*
D03*
D78*
X349438Y86583D02*
X370019Y66002D01*
X266792Y86583D02*
X349438D01*
X370155Y66002D02*
X371500Y64657D01*
X370019Y66002D02*
X370155D01*
X370019Y143502D02*
X370155D01*
X334438Y179083D02*
X370019Y143502D01*
X370155D02*
X371500Y142157D01*
X266792Y179083D02*
X334438D01*
X370019Y236002D02*
X370155D01*
X266792Y271583D02*
X334438D01*
X370155Y236002D02*
X371500Y234658D01*
X334438Y271583D02*
X370019Y236002D01*
X367924Y332861D02*
Y332998D01*
Y332861D02*
X371363Y329421D01*
X266792Y366347D02*
X334575D01*
X367924Y332998D01*
X371363Y329421D02*
X371500D01*
D80*
X25000Y147000D02*
D03*
X15500Y309000D02*
D03*
X46000Y142500D02*
D03*
X15500Y287000D02*
D03*
D81*
X15000Y147000D02*
D03*
X25000Y157000D02*
D03*
X15000D02*
D03*
X25000Y167000D02*
D03*
X15000D02*
D03*
X25000Y177000D02*
D03*
X15000D02*
D03*
X25000Y187000D02*
D03*
X15000D02*
D03*
X25000Y197000D02*
D03*
X15000D02*
D03*
X25000Y207000D02*
D03*
X15000D02*
D03*
X15500Y319000D02*
D03*
Y329000D02*
D03*
X46000Y152500D02*
D03*
Y162500D02*
D03*
X15500Y277000D02*
D03*
Y267000D02*
D03*
Y257000D02*
D03*
Y247000D02*
D03*
Y237000D02*
D03*
X54500Y37500D02*
D03*
D82*
X371500Y40051D02*
D03*
Y44973D02*
D03*
Y49894D02*
D03*
Y54815D02*
D03*
Y59736D02*
D03*
Y64657D02*
D03*
Y69579D02*
D03*
Y74500D02*
D03*
Y304815D02*
D03*
Y309736D02*
D03*
Y314657D02*
D03*
Y319579D02*
D03*
Y324500D02*
D03*
Y329421D02*
D03*
Y334343D02*
D03*
Y339264D02*
D03*
Y210051D02*
D03*
Y214972D02*
D03*
Y219894D02*
D03*
Y224815D02*
D03*
Y229736D02*
D03*
Y234658D02*
D03*
Y239579D02*
D03*
Y244500D02*
D03*
Y117551D02*
D03*
Y122472D02*
D03*
Y127394D02*
D03*
Y132315D02*
D03*
Y137236D02*
D03*
Y142157D02*
D03*
Y147079D02*
D03*
Y152000D02*
D03*
X128236Y19000D02*
D03*
X133158D02*
D03*
X138079D02*
D03*
X143000D02*
D03*
X147921D02*
D03*
X152842D02*
D03*
X157764D02*
D03*
X162685D02*
D03*
X118394D02*
D03*
X123315D02*
D03*
D83*
X67579Y376500D02*
D03*
X72500D02*
D03*
X77421D02*
D03*
X82342D02*
D03*
X66882Y19000D02*
D03*
X61961D02*
D03*
X57039D02*
D03*
X52118D02*
D03*
D84*
X64500Y37500D02*
D03*
D85*
X377500Y377500D02*
D03*
Y16000D02*
D03*
X16000D02*
D03*
Y377500D02*
D03*
D86*
X108000Y167500D02*
D03*
X111500Y170500D02*
D03*
X46500Y342500D02*
D03*
X148500Y322000D02*
D03*
X44500Y350000D02*
D03*
X38000Y358000D02*
D03*
X19500Y354000D02*
D03*
Y345000D02*
D03*
X138290Y285000D02*
D03*
X141000Y279500D02*
D03*
X126000Y92500D02*
D03*
X126390Y97000D02*
D03*
X126000Y101000D02*
D03*
X131500Y119500D02*
D03*
X135500Y110500D02*
D03*
X118468Y167964D02*
D03*
X82500Y218098D02*
D03*
X82653Y210500D02*
D03*
X109000Y200500D02*
D03*
X97000Y213000D02*
D03*
X103000Y213500D02*
D03*
X82500Y232000D02*
D03*
X87000Y230500D02*
D03*
X99500Y231498D02*
D03*
X99508Y196492D02*
D03*
X142000Y208710D02*
D03*
X136507D02*
D03*
X142500Y182000D02*
D03*
X145500Y178000D02*
D03*
X152910Y138500D02*
D03*
X139500Y192500D02*
D03*
Y166500D02*
D03*
X177500Y111500D02*
D03*
X176815Y107398D02*
D03*
X332000Y114000D02*
D03*
X335236Y109736D02*
D03*
X136000Y214210D02*
D03*
X153500Y208000D02*
D03*
X161500Y204500D02*
D03*
X159500Y168500D02*
D03*
X338500Y203910D02*
D03*
X340000Y207736D02*
D03*
X338500Y297000D02*
D03*
X109500Y354500D02*
D03*
Y256000D02*
D03*
X66500Y225000D02*
D03*
X61500Y219000D02*
D03*
X59000Y208000D02*
D03*
X53000Y238500D02*
D03*
X30500Y267000D02*
D03*
X44598Y244098D02*
D03*
X62290Y198500D02*
D03*
X105500Y228000D02*
D03*
X90000Y176000D02*
D03*
X98000Y173571D02*
D03*
X87500Y172000D02*
D03*
X84750Y168250D02*
D03*
X71500Y166500D02*
D03*
X49500Y206000D02*
D03*
X51000Y177500D02*
D03*
X57968Y178032D02*
D03*
X91469Y137031D02*
D03*
X98000Y137000D02*
D03*
X92290Y131951D02*
D03*
X97638Y182402D02*
D03*
X125674Y170674D02*
D03*
X93468Y127032D02*
D03*
X340000Y302500D02*
D03*
X39500Y206500D02*
D03*
X33583Y206000D02*
D03*
X86138Y327000D02*
D03*
X62500Y368000D02*
D03*
X89500Y365500D02*
D03*
X95000Y317500D02*
D03*
X89500Y319000D02*
D03*
X151969Y229500D02*
D03*
X145500Y264079D02*
D03*
X144000Y380500D02*
D03*
D87*
X257500Y233736D02*
D03*
X199500Y224236D02*
D03*
X178500Y223000D02*
D03*
X115154Y68484D02*
D03*
X111500Y83500D02*
D03*
X90000Y252000D02*
D03*
X77500Y255000D02*
D03*
X29654Y260346D02*
D03*
X63000Y262000D02*
D03*
X62532Y268468D02*
D03*
X57000Y251500D02*
D03*
X133500Y350500D02*
D03*
X133500Y363500D02*
D03*
X29500Y335500D02*
D03*
X57000Y360500D02*
D03*
X133500Y132000D02*
D03*
X69500Y158500D02*
D03*
X69000Y148000D02*
D03*
X139000Y89000D02*
D03*
X138000Y107000D02*
D03*
X125500Y86500D02*
D03*
X123448Y185552D02*
D03*
X131807Y194224D02*
D03*
X313500Y223736D02*
D03*
Y218236D02*
D03*
X277500Y215736D02*
D03*
X174000Y225500D02*
D03*
X223500Y158236D02*
D03*
X216500D02*
D03*
X202500D02*
D03*
X209500D02*
D03*
X199500Y39236D02*
D03*
Y32736D02*
D03*
Y25736D02*
D03*
X272000Y30736D02*
D03*
X277500D02*
D03*
X283000D02*
D03*
X223500Y79736D02*
D03*
X209500Y93736D02*
D03*
Y65736D02*
D03*
Y79736D02*
D03*
Y72736D02*
D03*
X216500Y65736D02*
D03*
X202500Y79736D02*
D03*
X216500Y93736D02*
D03*
X223500D02*
D03*
Y65736D02*
D03*
X202500D02*
D03*
X223500Y86736D02*
D03*
X216500Y79736D02*
D03*
X202500Y93736D02*
D03*
X216500Y86736D02*
D03*
X223500Y72736D02*
D03*
X202500Y86736D02*
D03*
Y72736D02*
D03*
X209000Y86736D02*
D03*
X216500Y72736D02*
D03*
X266792Y86583D02*
D03*
X257500Y48736D02*
D03*
X252000D02*
D03*
X257500Y54236D02*
D03*
X252000D02*
D03*
X313500Y38736D02*
D03*
Y33236D02*
D03*
X199500Y131736D02*
D03*
Y125236D02*
D03*
Y118236D02*
D03*
X272000Y123236D02*
D03*
X277500D02*
D03*
X283000D02*
D03*
X223500Y172236D02*
D03*
X209500Y186236D02*
D03*
Y172236D02*
D03*
Y165236D02*
D03*
X202500Y172236D02*
D03*
X216500Y186236D02*
D03*
X223500D02*
D03*
Y179236D02*
D03*
X216500Y172236D02*
D03*
X202500Y186236D02*
D03*
X216500Y179236D02*
D03*
X223500Y165236D02*
D03*
X202500Y179236D02*
D03*
Y165236D02*
D03*
X209000Y179236D02*
D03*
X216500Y165236D02*
D03*
X266792Y179083D02*
D03*
X257500Y141236D02*
D03*
X252000D02*
D03*
X257500Y146736D02*
D03*
X252000D02*
D03*
X313500Y131236D02*
D03*
Y125736D02*
D03*
X199500Y217736D02*
D03*
Y210736D02*
D03*
X272000Y215736D02*
D03*
X283000D02*
D03*
X223500Y264736D02*
D03*
X209500Y278736D02*
D03*
Y250736D02*
D03*
Y264736D02*
D03*
Y257736D02*
D03*
X216500Y250736D02*
D03*
X202500Y264736D02*
D03*
X216500Y278736D02*
D03*
X223500D02*
D03*
Y250736D02*
D03*
X202500D02*
D03*
X223500Y271736D02*
D03*
X216500Y264736D02*
D03*
X202500Y278736D02*
D03*
X216500Y271736D02*
D03*
X223500Y257736D02*
D03*
X202500Y271736D02*
D03*
Y257736D02*
D03*
X209000Y271736D02*
D03*
X216500Y257736D02*
D03*
X266792Y271583D02*
D03*
X252000Y233736D02*
D03*
X257500Y239236D02*
D03*
X252000D02*
D03*
X313500Y313000D02*
D03*
Y318500D02*
D03*
X52500Y377500D02*
D03*
X52000Y183500D02*
D03*
X74811Y190811D02*
D03*
X83000Y200500D02*
D03*
X147961Y57961D02*
D03*
X252000Y334000D02*
D03*
X257500D02*
D03*
X252000Y328500D02*
D03*
X257500D02*
D03*
X131500Y257500D02*
D03*
X148500Y250000D02*
D03*
X113538Y229000D02*
D03*
X115000Y222000D02*
D03*
X135500Y180500D02*
D03*
X66000Y89750D02*
D03*
X266792Y366347D02*
D03*
X216500Y352500D02*
D03*
X209000Y366500D02*
D03*
X202500Y352500D02*
D03*
Y366500D02*
D03*
X223500Y352500D02*
D03*
X216500Y366500D02*
D03*
X202500Y373500D02*
D03*
X216500Y359500D02*
D03*
X223500Y366500D02*
D03*
X202500Y345500D02*
D03*
X223500D02*
D03*
Y373500D02*
D03*
X216500D02*
D03*
X202500Y359500D02*
D03*
X216500Y345500D02*
D03*
X209500Y352500D02*
D03*
Y359500D02*
D03*
Y345500D02*
D03*
Y373500D02*
D03*
X223500Y359500D02*
D03*
X283000Y310500D02*
D03*
X277500D02*
D03*
X272000D02*
D03*
X199500Y305500D02*
D03*
Y312500D02*
D03*
Y319000D02*
D03*
X15500Y89500D02*
D03*
X21500D02*
D03*
X62000Y124500D02*
D03*
X56000D02*
D03*
X72000Y121000D02*
D03*
Y115000D02*
D03*
X60250Y101500D02*
D03*
X60500Y96000D02*
D03*
X66000Y85500D02*
D03*
X61000Y78500D02*
D03*
X48500Y72000D02*
D03*
X42167D02*
D03*
X54667Y78500D02*
D03*
X48333D02*
D03*
X42000D02*
D03*
D93*
X157248Y307000D02*
D03*
X41500D02*
D03*
D94*
X306630Y240000D02*
D03*
Y235000D02*
D03*
Y230000D02*
D03*
Y225000D02*
D03*
X285370Y240000D02*
D03*
Y235000D02*
D03*
Y230000D02*
D03*
Y225000D02*
D03*
D95*
X276000Y239756D02*
D03*
Y234244D02*
D03*
M02*
