M48
;Layer_Color=9474304
;FILE_FORMAT=2:5
INCH,LZ
;TYPE=PLATED
T1F00S00C0.01220
T2F00S00C0.01968
T3F00S00C0.03543
T4F00S00C0.12500
%
T01
X00155Y0071
X0014Y0128
X0093468Y0127032
X009229Y0131951
X0091469Y0137031
X0098Y0137
X01315Y01195
X01355Y01105
X0126Y0101
X012639Y0097
X0126Y00925
X01335Y0044
X0089Y00315
X0085688Y0010426
X015291Y01385
X01835Y0132
X0173826Y0117174
X01765Y010729
X01625Y00755
X01795Y0036
X01695Y00105
X01935Y0011
X02585Y0012
X02665Y00975
X0353Y0094
X03705Y0097
X0385Y00365
X0353Y00085
X0372Y0184
X0318Y02075
X0321Y02355
X03385Y0297
X034Y03025
X03715Y0278
X03075Y02445
X0296
X0263Y0244
X02665Y02825
X0228Y02355
X0227Y02025
X0255
X02665Y0192
X0278Y02025
X0304
X01975
X0175Y0204
X0164Y0217
X016891Y0235
X0169Y0181
X01595Y01685
X01395Y01665
X01455Y0178
X01425Y0182
X01395Y01925
X01555Y0192
X0142Y020871
X0136507
X0136Y021421
X0151969Y02295
X01455Y0264079
X0141Y02795
X013829Y0285
X01105Y02905
X01095Y0256
X01055Y0228
X00995Y0231498
X0087Y02305
X00825Y0232
Y0218098
X0082653Y02105
X0097Y0213
X0103Y02135
X0109Y02005
X0099508Y0196492
X0097638Y0182402
X0098Y0173571
X0091Y0175
X0092Y01785
X0089Y01715
X00715Y01665
X0057968Y0178032
X0051Y01775
X0038Y0171
X00395Y02065
X0033583Y0206
X00495
X0059Y0208
X006229Y01985
X00615Y0219
X00665Y0225
X0053Y02385
X0044598Y0244098
X00305Y0267
X00295Y02195
X0108Y01675
X01115Y01705
X0118468Y0167964
X0125674Y0170674
X01485Y0322
X0095Y03175
X00895Y0319
X0086138Y0327
X00675Y03135
X00465Y03425
X00445Y035
X0038Y0358
X00195Y0354
Y0345
X00095Y0355
X00625Y0368
X00895Y03655
X0094Y0386
X00485Y03875
X01095Y03545
X0144Y03805
X0165Y03895
Y0363
X01695Y03175
X02655Y03815
X03445Y0381
X03595Y0386
X03865Y0358
X038Y0345
T02
X0052118Y0019
X0057039
X0061961
X0066882
X0118394
X0123315
X0128236
X0133158
X0138079
X0143
X0147921
X0152842
X0147961Y0057961
X0139Y0089
X01255Y00865
X01115Y00835
X0115154Y0068484
X0138Y0107
X01335Y0132
X0072Y0121
Y0115
X0062Y01245
X0056
X006025Y01015
X00605Y0096
X0066Y008975
Y00855
X0061Y00785
X0054667
X0048333
X0042
X0042167Y0072
X00485
X00215Y00895
X00155
X0069Y0148
X01995Y0131736
Y0125236
Y0118236
X02025Y0093736
X02095
X02165
X02235
Y0086736
Y0079736
X02165
X02095
Y0072736
Y0065736
X02165
X02235
Y0072736
X02165
Y0086736
X0209
X02025
Y0079736
Y0072736
Y0065736
X01995Y0039236
Y0032736
Y0025736
X0162685Y0019
X0157764
X0252Y0048736
X02575
Y0054236
X0252
X0272Y0030736
X02775
X0283
Y0123236
X02775
X0272
X02575Y0141236
X0252
Y0146736
X02575
X03135Y0131236
Y0125736
X03715Y0127394
Y0122472
Y0117551
Y0132315
Y0137236
Y0142157
Y0147079
Y0152
Y00745
Y0069579
Y0064657
Y0059736
Y0054815
Y0049894
Y0044973
Y0040051
X03135Y0038736
Y0033236
Y0218236
Y0223736
X03715Y0224815
Y0219894
Y0214972
Y0210051
Y0229736
Y0234658
Y0239579
Y02445
Y0304815
Y0309736
X0283Y03105
X02775
X0272
X01995Y03055
X02025Y0278736
X02095
X02165
X02235
Y0271736
Y0264736
X02165
X02095
Y0257736
Y0250736
X02165
X02235
Y0257736
X02165
Y0271736
X0209
X02025
Y0264736
Y0257736
Y0250736
X01995Y0224236
Y0217736
Y0210736
X02025Y0186236
X02095
X02165
X02235
Y0179236
Y0172236
X02165
X02095
Y0165236
Y0158236
X02165
X02235
Y0165236
X02165
Y0179236
X0209
X02025
Y0172236
Y0165236
Y0158236
X0174Y02255
X0252Y0233736
X02575
Y0239236
X0252
X0272Y0215736
X02775
X0283
X01485Y025
X01315Y02575
X0113538Y0229
X0115Y0222
X0131807Y0194224
X0123448Y0185552
X01355Y01805
X0074811Y0190811
X0083Y02005
X0052Y01835
X00695Y01585
X00775Y0255
X009Y0252
X0057Y02515
X0063Y0262
X0062532Y0268468
X0029654Y0260346
X00295Y03355
X0057Y03605
X00525Y03775
X0067579Y03765
X00725
X0077421
X0082342
X01335Y03635
X01335Y03505
X02025Y03525
Y03455
X02095
X02165
Y03525
X02235
Y03455
Y03595
X02165
Y03665
X02235
Y03735
X02165
X02095
X02025
Y03665
X0209
X02095Y03595
X02025
X02095Y03525
X01995Y0319
Y03125
X0252Y03285
Y0334
X02575
Y03285
X03135Y03185
Y0313
X03715Y0314657
Y0319579
Y03245
Y0329421
Y0334343
Y0339264
T03
X00545Y00375
X00645
X0046Y01425
Y01525
X0025Y0147
X0015
Y0157
X0025
Y0167
X0015
Y0177
X0025
Y0187
X0015
Y0197
X0025
Y0207
X0015
X00155Y0237
Y0247
Y0257
Y0267
Y0277
Y0287
Y0309
X0046Y01625
X00155Y0319
Y0329
T04
X0016Y0016
X03775
X0016Y03775
X03775
M30
